HIERARCHY
ROOT Hips
{
	OFFSET 0.000000 97.167313 0.000000
	CHANNELS 6 Xposition Yposition Zposition Xrotation Yrotation Zrotation
	JOINT Spine
	{
		OFFSET 0.000000 13.784798 0.064400
		CHANNELS 3 Xrotation Yrotation Zrotation
		JOINT Spine1
		{
			OFFSET 0.000000 12.037903 0.404700
			CHANNELS 3 Xrotation Yrotation Zrotation
			JOINT Spine2
			{
				OFFSET 0.000000 17.795601 0.420200
				CHANNELS 3 Xrotation Yrotation Zrotation
				JOINT Neck
				{
					OFFSET 0.000000 39.131302 11.954600
					CHANNELS 3 Xrotation Yrotation Zrotation
					JOINT Head
					{
						OFFSET 0.000000 14.456192 15.627699
						CHANNELS 3 Xrotation Yrotation Zrotation
						JOINT HeadTop_End
						{
							OFFSET 0.000000 15.703506 7.603401
							CHANNELS 3 Xrotation Yrotation Zrotation
							End Site
							{
								OFFSET 0.000000 17.447403 0.000000
							}
						}
					}
				}
				JOINT LeftShoulder
				{
					OFFSET 17.399500 24.608795 1.168800
					CHANNELS 3 Xrotation Yrotation Zrotation
					JOINT LeftArm
					{
						OFFSET 18.980635 5.765305 1.818600
						CHANNELS 3 Xrotation Yrotation Zrotation
						JOINT LeftForeArm
						{
							OFFSET 49.290169 0.000000 0.000000
							CHANNELS 3 Xrotation Yrotation Zrotation
							JOINT LeftHand
							{
								OFFSET 31.562012 0.000000 0.000000
								CHANNELS 3 Xrotation Yrotation Zrotation
								JOINT LeftHandThumb1
								{
									OFFSET 6.133995 -4.388519 7.076070
									CHANNELS 3 Xrotation Yrotation Zrotation
									JOINT LeftHandThumb2
									{
										OFFSET 6.037666 -3.485840 3.485847
										CHANNELS 3 Xrotation Yrotation Zrotation
										JOINT LeftHandThumb3
										{
											OFFSET 6.496506 -3.750763 3.750761
											CHANNELS 3 Xrotation Yrotation Zrotation
											JOINT LeftHandThumb4
											{
												OFFSET 5.616882 -3.242905 3.242910
												CHANNELS 3 Xrotation Yrotation Zrotation
												End Site
												{
													OFFSET -1.254608 7.132141 0.375429
												}
											}
										}
									}
								}
								JOINT LeftHandPinky1
								{
									OFFSET 18.920792 -0.453171 -11.426712
									CHANNELS 3 Xrotation Yrotation Zrotation
									JOINT LeftHandPinky2
									{
										OFFSET 4.919586 0.000000 0.000000
										CHANNELS 3 Xrotation Yrotation Zrotation
										JOINT LeftHandPinky3
										{
											OFFSET 5.233047 0.000000 0.000000
											CHANNELS 3 Xrotation Yrotation Zrotation
											JOINT LeftHandPinky4
											{
												OFFSET 5.571716 0.000000 0.000000
												CHANNELS 3 Xrotation Yrotation Zrotation
												End Site
												{
													OFFSET -3.459808 4.342407 -0.466164
												}
											}
										}
									}
								}
								JOINT LeftHandRing1
								{
									OFFSET 22.726120 -0.094986 -6.500475
									CHANNELS 3 Xrotation Yrotation Zrotation
									JOINT LeftHandRing2
									{
										OFFSET 6.408615 0.000000 0.000000
										CHANNELS 3 Xrotation Yrotation Zrotation
										JOINT LeftHandRing3
										{
											OFFSET 6.150223 0.000000 0.000000
											CHANNELS 3 Xrotation Yrotation Zrotation
											JOINT LeftHandRing4
											{
												OFFSET 6.145386 0.000000 0.000000
												CHANNELS 3 Xrotation Yrotation Zrotation
												End Site
												{
													OFFSET -3.671402 4.923981 -0.202372
												}
											}
										}
									}
								}
								JOINT LeftHandMiddle1
								{
									OFFSET 23.373947 0.000000 0.000001
									CHANNELS 3 Xrotation Yrotation Zrotation
									JOINT LeftHandMiddle2
									{
										OFFSET 6.996567 0.000000 0.000000
										CHANNELS 3 Xrotation Yrotation Zrotation
										JOINT LeftHandMiddle3
										{
											OFFSET 7.015945 0.000000 0.000000
											CHANNELS 3 Xrotation Yrotation Zrotation
											JOINT LeftHandMiddle4
											{
												OFFSET 7.721573 0.000000 0.000000
												CHANNELS 3 Xrotation Yrotation Zrotation
												End Site
												{
													OFFSET -4.651108 6.158463 0.251582
												}
											}
										}
									}
								}
								JOINT LeftHandIndex1
								{
									OFFSET 21.310577 -0.490082 6.209344
									CHANNELS 3 Xrotation Yrotation Zrotation
									JOINT LeftHandIndex2
									{
										OFFSET 7.536453 0.000000 0.000000
										CHANNELS 3 Xrotation Yrotation Zrotation
										JOINT LeftHandIndex3
										{
											OFFSET 7.512344 0.000000 0.000000
											CHANNELS 3 Xrotation Yrotation Zrotation
											JOINT LeftHandIndex4
											{
												OFFSET 10.212402 0.000000 0.000001
												CHANNELS 3 Xrotation Yrotation Zrotation
												End Site
												{
													OFFSET -5.180801 8.690506 1.388433
												}
											}
										}
									}
								}
							}
						}
					}
				}
				JOINT RightShoulder
				{
					OFFSET -17.399500 24.608795 1.168800
					CHANNELS 3 Xrotation Yrotation Zrotation
					JOINT RightArm
					{
						OFFSET -18.980635 5.765305 1.818600
						CHANNELS 3 Xrotation Yrotation Zrotation
						JOINT RightForeArm
						{
							OFFSET -49.290169 0.000000 0.000000
							CHANNELS 3 Xrotation Yrotation Zrotation
							JOINT RightHand
							{
								OFFSET -31.562012 0.000000 0.000000
								CHANNELS 3 Xrotation Yrotation Zrotation
								JOINT RightHandThumb1
								{
									OFFSET -6.133995 -4.388519 7.076070
									CHANNELS 3 Xrotation Yrotation Zrotation
									JOINT RightHandThumb2
									{
										OFFSET -6.037666 -3.485840 3.485847
										CHANNELS 3 Xrotation Yrotation Zrotation
										JOINT RightHandThumb3
										{
											OFFSET -6.496506 -3.750763 3.750761
											CHANNELS 3 Xrotation Yrotation Zrotation
											JOINT RightHandThumb4
											{
												OFFSET -5.616882 -3.242905 3.242910
												CHANNELS 3 Xrotation Yrotation Zrotation
												End Site
												{
													OFFSET 1.254608 7.132141 0.375429
												}
											}
										}
									}
								}
								JOINT RightHandIndex1
								{
									OFFSET -21.310577 -0.490082 6.209344
									CHANNELS 3 Xrotation Yrotation Zrotation
									JOINT RightHandIndex2
									{
										OFFSET -7.536453 0.000000 0.000000
										CHANNELS 3 Xrotation Yrotation Zrotation
										JOINT RightHandIndex3
										{
											OFFSET -7.512344 0.000000 0.000000
											CHANNELS 3 Xrotation Yrotation Zrotation
											JOINT RightHandIndex4
											{
												OFFSET -10.212402 0.000000 0.000001
												CHANNELS 3 Xrotation Yrotation Zrotation
												End Site
												{
													OFFSET 5.180801 8.690506 1.388433
												}
											}
										}
									}
								}
								JOINT RightHandMiddle1
								{
									OFFSET -23.373947 0.000000 0.000001
									CHANNELS 3 Xrotation Yrotation Zrotation
									JOINT RightHandMiddle2
									{
										OFFSET -6.996567 0.000000 0.000000
										CHANNELS 3 Xrotation Yrotation Zrotation
										JOINT RightHandMiddle3
										{
											OFFSET -7.015945 0.000000 0.000000
											CHANNELS 3 Xrotation Yrotation Zrotation
											JOINT RightHandMiddle4
											{
												OFFSET -7.721573 0.000000 0.000000
												CHANNELS 3 Xrotation Yrotation Zrotation
												End Site
												{
													OFFSET 4.651108 6.158463 0.251582
												}
											}
										}
									}
								}
								JOINT RightHandRing1
								{
									OFFSET -22.726120 -0.094986 -6.500475
									CHANNELS 3 Xrotation Yrotation Zrotation
									JOINT RightHandRing2
									{
										OFFSET -6.408615 0.000000 0.000000
										CHANNELS 3 Xrotation Yrotation Zrotation
										JOINT RightHandRing3
										{
											OFFSET -6.150223 0.000000 0.000000
											CHANNELS 3 Xrotation Yrotation Zrotation
											JOINT RightHandRing4
											{
												OFFSET -6.145386 0.000000 0.000000
												CHANNELS 3 Xrotation Yrotation Zrotation
												End Site
												{
													OFFSET 3.671402 4.923981 -0.202372
												}
											}
										}
									}
								}
								JOINT RightHandPinky1
								{
									OFFSET -18.920792 -0.453171 -11.426712
									CHANNELS 3 Xrotation Yrotation Zrotation
									JOINT RightHandPinky2
									{
										OFFSET -4.919586 0.000000 0.000000
										CHANNELS 3 Xrotation Yrotation Zrotation
										JOINT RightHandPinky3
										{
											OFFSET -5.233047 0.000000 0.000000
											CHANNELS 3 Xrotation Yrotation Zrotation
											JOINT RightHandPinky4
											{
												OFFSET -5.571716 0.000000 0.000000
												CHANNELS 3 Xrotation Yrotation Zrotation
												End Site
												{
													OFFSET 3.459808 4.342407 -0.466164
												}
											}
										}
									}
								}
							}
						}
					}
				}
			}
		}
	}
	JOINT LeftUpLeg
	{
		OFFSET 19.899099 -7.885101 -3.429500
		CHANNELS 3 Xrotation Yrotation Zrotation
		JOINT LeftLeg
		{
			OFFSET 1.745560 -36.997807 10.304700
			CHANNELS 3 Xrotation Yrotation Zrotation
			JOINT LeftFoot
			{
				OFFSET -1.745558 -29.803308 -13.615400
				CHANNELS 3 Xrotation Yrotation Zrotation
				JOINT LeftToeBase
				{
					OFFSET 1.181900 -18.539904 15.226099
					CHANNELS 3 Xrotation Yrotation Zrotation
					JOINT LeftToe_End
					{
						OFFSET -0.863701 1.402801 16.534700
						CHANNELS 3 Xrotation Yrotation Zrotation
						End Site
						{
							OFFSET 0.000000 16.616566 0.000000
						}
					}
				}
			}
		}
	}
	JOINT RightUpLeg
	{
		OFFSET -19.899099 -7.885101 -3.429500
		CHANNELS 3 Xrotation Yrotation Zrotation
		JOINT RightLeg
		{
			OFFSET -1.745560 -36.997807 10.304700
			CHANNELS 3 Xrotation Yrotation Zrotation
			JOINT RightFoot
			{
				OFFSET 1.745558 -29.803308 -13.615400
				CHANNELS 3 Xrotation Yrotation Zrotation
				JOINT RightToeBase
				{
					OFFSET -1.181900 -18.539904 15.226099
					CHANNELS 3 Xrotation Yrotation Zrotation
					JOINT RightToe_End
					{
						OFFSET 0.863701 1.402801 16.534700
						CHANNELS 3 Xrotation Yrotation Zrotation
						End Site
						{
							OFFSET 0.000000 16.616566 0.000000
						}
					}
				}
			}
		}
	}
}
MOTION
Frames: 4
Frame Time: 0.033333
-0.232100 83.614159 1.749559 5.883887 -18.221454 1.354971 3.505032 -1.423856 2.343895 4.828631 -2.419296 0.835436 4.774603 -2.549359 0.869725 14.102800 11.901104 -15.969838 -23.528928 7.572324 4.974473 -0.000000 0.000000 -0.000000 -0.057399 -8.759442 -0.061012 -55.250835 0.329419 -41.449399 11.538235 -65.829821 12.963353 -50.191512 12.354998 4.601615 17.551599 -5.699190 -12.932280 10.850511 26.127699 8.644788 20.926904 51.115886 0.218812 -0.000000 -0.000001 -0.000003 10.078358 13.623706 -84.747437 0.877104 0.062316 -64.595544 1.141315 1.253126 -55.016317 0.000000 -0.000002 0.000003 8.564788 2.154393 -75.138501 -0.207622 1.009285 -57.855070 0.443117 1.742167 -53.581287 -0.000000 0.000000 0.000005 7.504743 1.174504 -63.778496 1.807875 1.475655 -64.567930 0.127415 -0.912523 -43.272578 -0.000000 0.000000 -0.000003 13.973710 1.210707 -55.006187 0.370837 1.161694 -65.441893 1.983984 2.147993 -57.665129 -0.000002 0.000003 0.000001 4.853441 7.760732 5.560753 -0.937545 -2.177116 61.844788 11.288199 18.945253 -3.985258 -0.441561 6.619929 5.830414 15.788536 -2.734475 -17.205871 -2.198327 -31.113571 7.361195 -6.566809 -4.138103 2.407573 0.000000 -0.000004 -0.000000 2.366231 -3.659747 8.487050 -2.153857 -2.473481 18.672938 -1.905444 -4.825322 14.172876 -0.000000 -0.000001 -0.000001 -1.974048 -5.709769 13.662508 0.283428 -5.113188 26.987997 -0.654601 -1.220917 16.126025 0.000000 0.000001 -0.000004 -3.241880 -8.555422 11.765086 4.032442 -4.063330 33.262874 2.112268 -3.160237 15.594048 -0.000001 0.000001 -0.000003 -6.474864 -11.359825 23.258997 10.719400 -2.558792 34.823033 6.414163 -3.079543 15.310993 -0.000001 -0.000002 -0.000001 -31.873494 10.221262 11.642307 56.667477 5.904951 -8.665486 1.626468 4.720491 0.117401 -28.560586 1.977315 -3.638745 -0.000000 0.000001 0.000000 -30.568450 17.978144 6.969005 43.956253 -5.606662 2.117363 -17.220411 -4.796159 1.775680 -3.480912 0.001992 -0.000728 0.000000 -0.000001 -0.000000 
-0.309403 84.868935 7.235873 6.111894 -19.213131 2.143187 3.466160 -1.231591 1.669635 4.781800 -2.002831 0.634798 4.738870 -2.121200 0.659742 14.027361 11.986278 -15.732144 -23.588931 7.648471 5.056748 0.000000 0.000000 -0.000000 -0.069712 -8.287029 0.074420 -55.024783 0.471696 -41.488003 11.627121 -66.095624 12.957328 -50.464856 12.410442 4.775369 17.551600 -5.699190 -12.932280 10.850515 26.127697 8.644784 20.926906 51.115879 0.218817 -0.000001 -0.000001 -0.000002 10.078355 13.623697 -84.747450 0.877102 0.062317 -64.595551 1.141314 1.253128 -55.016320 -0.000001 -0.000000 -0.000000 8.564788 2.154393 -75.138494 -0.207621 1.009286 -57.855070 0.443117 1.742167 -53.581280 0.000000 0.000000 0.000003 7.504745 1.174506 -63.778496 1.807875 1.475656 -64.567930 0.127414 -0.912524 -43.272578 0.000001 0.000000 0.000001 13.973712 1.210708 -55.006191 0.370833 1.161698 -65.441900 1.983984 2.147996 -57.665129 -0.000001 0.000001 -0.000001 4.758693 8.528073 5.476059 -1.341797 -0.256338 61.242195 11.412683 21.074557 -4.393023 -0.771966 6.269847 4.615023 15.860165 -2.043448 -16.756766 -2.198325 -31.113568 7.361188 -6.566809 -4.138095 2.407579 -0.000003 -0.000001 -0.000001 2.369594 -3.659057 7.754437 -2.153441 -2.473157 17.940160 -1.904962 -4.820710 13.440177 0.000000 0.000002 0.000001 -1.978058 -5.709425 12.929240 0.283034 -5.107936 26.255169 -0.655827 -1.220492 15.393086 0.000001 0.000001 -0.000009 -3.237925 -8.555148 11.032786 4.034532 -4.063031 32.530142 2.109584 -3.160094 14.860967 -0.000001 0.000000 -0.000005 -6.474565 -11.351946 22.527193 10.719214 -2.558519 34.090130 6.414086 -3.079208 14.578081 0.000001 -0.000002 -0.000001 -35.014791 8.740912 13.009816 49.841994 6.699956 -9.503496 -2.259737 6.076249 -2.744876 -14.202224 0.887521 -0.094176 -0.000000 0.000001 -0.000000 -23.882776 18.195136 4.682904 41.366839 -4.711914 1.257370 -20.737407 -4.145708 1.546018 -3.924884 -0.438316 -0.087707 -0.000000 -0.000001 -0.000000 
-0.361008 86.014656 12.498192 6.491032 -20.603923 2.963428 3.434466 -0.950417 1.006466 4.780226 -1.506609 0.427985 4.748382 -1.618221 0.452758 14.333635 12.095311 -15.855029 -24.248956 7.597939 5.248968 -0.000001 -0.000000 -0.000000 -0.032563 -8.365368 0.234864 -55.118541 0.936250 -40.839159 11.699642 -66.308125 12.945135 -50.416314 12.491526 4.829554 17.551599 -5.699188 -12.932282 10.850513 26.127699 8.644786 20.926902 51.115879 0.218813 -0.000002 -0.000002 -0.000006 10.078366 13.625009 -84.747621 0.877103 0.062315 -64.595551 1.141317 1.253126 -55.016317 0.000001 -0.000000 -0.000004 8.564787 2.154392 -75.138501 -0.207623 1.009285 -57.855063 0.443117 1.742163 -53.581287 -0.000000 0.000000 0.000005 7.504745 1.174506 -63.778496 1.807876 1.475655 -64.567930 0.127414 -0.912524 -43.272582 0.000000 0.000001 0.000004 13.973710 1.210706 -55.006187 0.370836 1.161695 -65.441893 1.983984 2.147995 -57.665122 -0.000000 0.000001 -0.000001 4.725249 9.025819 5.392351 -2.005153 2.090388 60.498209 11.546015 22.653750 -4.373823 -1.727458 7.646444 3.609019 15.938851 -1.262903 -16.254050 -2.198325 -31.113568 7.361191 -6.566813 -4.138095 2.407573 -0.000001 0.000002 0.000002 2.371530 -3.658455 6.928484 -2.152779 -2.472758 17.114014 -1.904714 -4.817840 12.614290 -0.000000 -0.000001 -0.000001 -1.982373 -5.709038 12.102748 0.282734 -5.104760 25.429091 -0.657003 -1.220015 14.566968 0.000001 0.000000 -0.000008 -3.238023 -8.554783 10.206664 4.036914 -4.062676 31.704256 2.107063 -3.159899 14.034761 0.000001 -0.000000 -0.000003 -6.474455 -11.347312 21.701714 10.719015 -2.558207 33.264042 6.414004 -3.078842 13.752026 0.000002 -0.000000 0.000002 -37.231768 6.719527 14.243044 40.853219 8.514164 -9.889157 -4.536668 8.124603 -4.786368 -12.176129 0.883816 -3.444634 -0.000000 -0.000001 -0.000000 -17.667867 17.986525 2.270882 38.026310 -3.605521 0.133022 -22.997346 -3.334964 1.612289 -4.473550 -0.900088 0.059967 0.000000 -0.000000 -0.000000 
-0.341412 86.484909 17.566553 6.527476 -22.186119 3.468653 3.466586 -0.734771 0.542392 4.881619 -1.051321 0.278300 4.858101 -1.159367 0.298097 14.780587 12.320803 -16.263944 -25.028764 7.729715 5.454531 0.000001 0.000000 -0.000000 0.068659 -7.895992 0.719987 -55.245855 1.521441 -40.589547 11.798128 -66.591257 12.990484 -50.322518 12.684906 4.997397 17.551600 -5.699191 -12.932281 10.850517 26.127699 8.644788 20.926906 51.115882 0.218815 0.000000 0.000001 -0.000001 10.076624 13.656812 -84.752122 0.877101 0.062319 -64.595544 1.141315 1.253128 -55.016317 -0.000000 -0.000000 0.000003 8.564788 2.154392 -75.138501 -0.207622 1.009285 -57.855076 0.443117 1.742166 -53.581280 -0.000000 0.000000 0.000003 7.504742 1.174505 -63.778496 1.807877 1.475657 -64.567930 0.127412 -0.912523 -43.272582 0.000001 -0.000001 0.000004 13.973711 1.210709 -55.006187 0.370835 1.161697 -65.441900 1.983985 2.147991 -57.665129 -0.000000 0.000003 0.000001 4.608588 10.255117 5.364717 -1.783460 3.866935 59.488584 11.787354 25.701221 -4.432059 -2.608061 7.675656 2.725821 16.018175 -0.451121 -15.736080 -2.198323 -31.113571 7.361187 -6.566810 -4.138097 2.407578 -0.000001 -0.000001 -0.000001 2.370964 -3.658119 6.071343 -2.151837 -2.472340 16.256955 -1.904795 -4.817484 11.757099 -0.000001 -0.000001 0.000001 -1.986410 -5.708657 11.245266 0.282571 -5.104392 24.571923 -0.658007 -1.219562 13.709803 -0.000000 0.000001 -0.000004 -3.238076 -8.554401 9.349471 4.039300 -4.062316 30.847303 2.105085 -3.159639 13.177543 -0.000000 -0.000000 -0.000002 -6.474615 -11.346943 20.844515 10.718811 -2.557893 32.406857 6.413897 -3.078463 12.894865 -0.000002 -0.000002 -0.000001 -38.983622 3.890213 15.670942 33.252988 10.418380 -9.435452 -7.505113 10.364443 -6.251015 -12.012867 0.873313 -3.411284 -0.000002 0.000000 0.000000 -12.017544 17.506229 0.073730 35.566386 -2.362633 -1.058310 -25.208362 -2.546219 1.838665 -5.175763 -1.476781 0.277232 -0.000000 0.000000 -0.000000 
